<svg width="111" height="58" viewBox="0 0 111 58" fill="none" xmlns="http://www.w3.org/2000/svg">
<path d="M47.53 1.497C47.53 0.67023 46.8598 0 46.033 0C45.2063 0 44.536 0.67023 44.536 1.497V13.473C44.536 14.2998 45.2063 14.97 46.033 14.97H67.5524C68.3792 14.97 69.0494 14.2998 69.0494 13.473C69.0494 12.6462 68.3792 11.976 67.5524 11.976H47.53V1.497Z" fill="#00050E"/>
<path fill-rule="evenodd" clip-rule="evenodd" d="M32.56 15.5314C32.56 23.2824 26.2766 29.5658 18.5257 29.5658C10.7747 29.5658 4.49128 23.2824 4.49128 15.5314C4.49128 7.78041 10.7747 1.497 18.5257 1.497C26.2766 1.497 32.56 7.78041 32.56 15.5314ZM29.566 15.5314C29.566 21.6288 24.6231 26.5718 18.5257 26.5718C12.4282 26.5718 7.48528 21.6288 7.48528 15.5314C7.48528 9.43395 12.4282 4.491 18.5257 4.491C24.6231 4.491 29.566 9.43395 29.566 15.5314Z" fill="#00050E"/>
<path d="M20.584 33.3083C20.584 32.4815 19.9138 31.8113 19.087 31.8113C18.2603 31.8113 17.59 32.4815 17.59 33.3083V49.0757C12.6952 49.1807 7.38897 48.7023 1.74948 47.7383C0.934531 47.599 0.160952 48.1467 0.0216447 48.9617C-0.117663 49.7766 0.430053 50.5502 1.245 50.6895C12.3033 52.5798 22.44 52.7073 30.8986 50.0823C39.1478 47.5222 45.7351 42.3606 49.9666 33.8696H68.6752V41.916H49.027C48.2003 41.916 47.53 42.5862 47.53 43.413V55.5761C47.53 56.4029 48.2003 57.0731 49.027 57.0731H108.72C109.547 57.0731 110.217 56.4029 110.217 55.5761C110.217 54.7494 109.547 54.0791 108.72 54.0791H50.524V44.91H70.1722C70.999 44.91 71.6692 44.2398 71.6692 43.413V32.3726C71.6692 31.5459 70.999 30.8756 70.1722 30.8756H49.0604C48.7663 30.8692 48.4772 30.9502 48.2303 31.1051C48.0458 31.2208 47.8849 31.3777 47.763 31.5704C47.7231 31.633 47.6878 31.6988 47.6575 31.7673C43.8197 39.9596 37.7569 44.8189 30.0111 47.2228C27.1055 48.1245 23.9537 48.6831 20.584 48.934V33.3083Z" fill="#00050E"/>
<path d="M86.4318 14.9082C87.086 15.4137 87.2065 16.3539 86.701 17.0081C84.874 19.3725 82.1293 21.0376 78.8457 22.2048C75.5569 23.3739 71.6244 24.0805 67.2855 24.4609C58.6109 25.2214 48.0701 24.6962 37.2956 23.7593C36.4719 23.6876 35.8623 22.9619 35.9339 22.1382C36.0055 21.3145 36.7313 20.7049 37.555 20.7765C48.2999 21.7109 58.6235 22.2148 67.024 21.4783C71.2227 21.1102 74.8805 20.4368 77.8429 19.3837C80.8104 18.3289 82.9778 16.9298 84.3319 15.1774C84.8374 14.5232 85.7776 14.4027 86.4318 14.9082Z" fill="#00050E"/>
<path fill-rule="evenodd" clip-rule="evenodd" d="M105.99 25.779C106.738 26.1314 107.058 27.0234 106.706 27.7713L99.0338 44.0512C98.826 44.492 98.4167 44.8041 97.9366 44.8878C97.4565 44.9714 96.9657 44.8162 96.6211 44.4715L91.3816 39.232C90.797 38.6474 90.797 37.6996 91.3816 37.115C91.9662 36.5304 92.914 36.5304 93.4987 37.115L97.2329 40.8492L103.998 26.495C104.35 25.7471 105.242 25.4265 105.99 25.779Z" fill="#0760FB"/>
<path d="M87.949 30.5014C87.329 30.5014 86.8263 31.0041 86.8263 31.6242V49.5882C86.8263 50.2082 87.329 50.7109 87.949 50.7109H108.907C109.527 50.7109 110.03 50.2082 110.03 49.5882V31.6242C110.03 31.0041 109.527 30.5014 108.907 30.5014H107.597C106.977 30.5014 106.474 31.0041 106.474 31.6242C106.474 32.2442 106.977 32.7469 107.597 32.7469H107.784V48.4654H89.0718V32.7469H94.6855C95.3056 32.7469 95.8083 32.2442 95.8083 31.6242C95.8083 31.0041 95.3056 30.5014 94.6855 30.5014H87.949Z" fill="#979797"/>
<path d="M97.7731 32.7469C98.3931 32.7469 98.8959 32.2442 98.8959 31.6242C98.8959 31.0041 98.3931 30.5014 97.7731 30.5014C97.1531 30.5014 96.6504 31.0041 96.6504 31.6242C96.6504 32.2442 97.1531 32.7469 97.7731 32.7469Z" fill="#979797"/>
</svg>
